<svg xmlns="http://www.w3.org/2000/svg" width="512" height="512" viewBox="0 0 512 512">
  <defs>
    <linearGradient id="bg" x1="0" y1="0" x2="1" y2="1">
      <stop offset="0%" stop-color="#0F2A44"/>
      <stop offset="100%" stop-color="#1B3F66"/>
    </linearGradient>
  </defs>
  <rect width="512" height="512" rx="64" fill="url(#bg)"/>
  <g transform="translate(256,230)">
    <path d="M0-130 C-90-130-150-60-150 10 C-150 80-90 140 0 140 C80 140 150 80 150 10 C150-30 120-70 80-95 C50-70 25-40 25 0 C25 40 50 75 80 90 C55 110 25 125 0 125 C-70 125-120 70-120 10 C-120-50-70-100 0-130Z" fill="#E8C96A"/>
    <polygon points="0,-145 -20,-108 20,-108" fill="#E8C96A"/>
    <circle cx="65" cy="-65" r="14" fill="#E8C96A"/>
    <circle cx="90" cy="-15" r="10" fill="#E8C96A"/>
    <circle cx="80" cy="40" r="8" fill="#E8C96A"/>
  </g>
</svg>
